<svg width="860" height="195" viewBox="0 0 860 195" fill="none" xmlns="http://www.w3.org/2000/svg">
<g clip-path="url(#clip0_2367_79921)">
<path d="M53.017 145.579H20.2162V6.61897C20.2136 3.73479 25.7861 1.97127 25.7861 0.620688V0H0V0.620688C0 1.97127 5.7772 3.73479 5.7772 6.61897V143.305C5.7772 145.579 0 146.996 0 149.301V149.922H67.4585V119.937H66.8393C61.9154 119.937 62.4636 145.579 53.017 145.579ZM194.023 8.61882C198.642 8.61882 202.387 12.3724 202.387 17.0022C202.387 21.6324 198.642 25.3855 194.023 25.3855C189.404 25.3855 185.66 21.6319 185.66 17.0022C185.66 12.372 189.404 8.61882 194.023 8.61882ZM627.246 38.9413C643.349 39.486 642.153 57.2006 642.153 75.1174C637.409 76.1506 593.877 90.9878 593.259 124.28C592.847 142.065 602.34 152.404 617.395 152.404C634.522 152.196 640.912 135.862 642.153 132.344V149.922H662.371V149.301C662.371 147.235 656.594 145.989 656.594 143.305V75.5299C656.594 50.9233 653.497 34.7914 626.474 34.7914C620.085 34.7914 608.675 35.976 603.166 39.1315L603.163 61.882H603.782C606.733 61.882 608.529 38.9285 622.025 38.9285L627.246 38.9408L627.246 38.9413ZM622.346 144.339C612.446 144.339 607.288 136.687 607.288 122.626C607.288 92.4365 638.233 79.873 642.153 79.045V129.037C641.12 131.724 635.552 144.339 622.346 144.339ZM337.24 38.9413C353.343 39.486 352.145 57.2006 352.145 75.1174C347.401 76.1506 303.872 90.9878 303.253 124.28C302.841 142.065 312.331 152.404 327.389 152.404C344.513 152.196 350.907 135.862 352.144 132.344V149.922H372.363V149.301C372.363 147.235 366.586 145.989 366.586 143.305V75.5299C366.586 50.9233 363.491 34.7914 336.468 34.7914C330.079 34.7914 318.669 35.976 313.16 39.1315L313.155 61.882H313.774C316.727 61.882 318.523 38.9285 332.019 38.9285L337.241 38.9408L337.24 38.9413ZM155.752 143.296V37.481H135.535V38.1013C135.535 39.7479 141.31 41.0153 141.31 44.0996V127.797C141.31 127.797 136.359 145.166 120.063 145.166C104.177 145.166 101.082 132.139 101.082 112.7V37.481H80.8668V38.1013C80.8668 39.7479 86.644 41.0153 86.644 44.0996V112.7C86.644 137.515 91.181 152.404 115.317 152.404C133.884 152.404 140.073 135.654 141.31 131.931V149.922H160.291V149.301C158.777 147.58 155.752 146.649 155.752 143.295V143.296ZM201.137 143.306V37.2733H181.126V37.8936C181.126 39.7475 186.696 41.0149 186.696 43.8918V143.305C186.696 146.61 181.126 147.562 181.126 149.301V149.922H206.914V149.301C206.914 147.562 201.137 146.61 201.137 143.305V143.306ZM251.267 152.404C275.611 152.404 285.306 139.376 285.306 122.213C285.306 86.4378 238.27 84.2152 238.27 56.9195C238.27 43.4793 248.999 38.9289 257.456 38.9289H261.698C275.194 38.9289 276.99 61.6747 279.943 61.6747H280.562V40.375C280.562 40.375 272.723 34.7918 257.663 34.7918C235.383 34.7918 226.307 50.3031 226.307 61.2621C226.307 94.1411 272.104 95.5382 272.104 126.761C272.104 143.306 260.543 148.269 251.267 148.269H248.655C233.597 148.269 232.369 123.454 228.783 123.454H228.163V147.233C228.163 147.233 235.176 152.404 251.267 152.404ZM332.341 144.339C322.438 144.339 317.283 136.687 317.283 122.626C317.283 92.4365 348.227 79.873 352.145 79.045V129.037C351.114 131.724 345.544 144.339 332.341 144.339ZM589.341 0.00042659H568.094V0.415925C568.094 2.8364 580.964 9.12519 579.646 14.0638L549.525 141.65L517.755 9.10087C517.085 6.59508 523.736 1.9717 523.736 0.415925V0.00042659H501.252V0.621115L510.947 39.9113L486.813 141.237L455.248 8.89355C454.639 6.6147 461.022 1.97213 461.022 0.415925V0.00042659H438.742V0.621115L475.259 149.922H490.081L513.63 50.8726L537.764 149.922H552.613L589.341 1.03619V0.00042659H589.341ZM756.851 143.306V74.4971C756.851 49.6828 753.759 34.7918 727.971 34.7918C706.929 34.7918 702.182 52.5772 702.182 52.5772V37.2733H681.966V37.8936C681.966 39.7475 687.743 41.0149 687.743 43.8918V143.305C687.743 146.61 681.966 147.562 681.966 149.301V149.922H707.96V149.301C707.96 147.562 702.182 146.61 702.182 143.305V55.8858C702.182 55.8858 707.136 42.0306 723.431 42.0306C740.76 42.0306 742.41 55.0583 742.41 74.4967V143.305C742.41 146.61 736.635 147.562 736.635 149.301V149.922H762.424V149.301C762.424 147.562 756.851 146.61 756.851 143.305V143.306ZM831.117 138.756H802.648C794.194 138.756 789.862 136.274 790.066 129.45C790.271 120.972 798.317 110.666 800.38 109.631C805.538 112.112 811.727 113.56 818.535 113.56C841.436 113.56 855.668 98.2757 855.668 74.4971C855.668 58.5729 849.684 46.5811 839.163 40.1698H858.765V27.1422H858.144C854.202 27.1422 846.014 39.7543 838.546 39.7543C832.974 36.4474 826.374 34.7914 818.535 34.7914C795.636 34.7914 781.402 50.0949 781.402 74.4967C781.402 90.6256 788.005 102.806 799.557 109.01C796.258 110.25 782.845 122.213 782.845 135.033C782.845 143.305 788.21 150.749 801.207 151.162C797.494 151.99 782.845 156.332 782.228 170.601C781.607 182.593 792.542 195 819.978 195C842.464 195 860 182.593 860 164.189C860 141.649 841.845 138.755 831.117 138.755L831.117 138.756ZM818.534 38.9293C831.117 38.9293 841.226 51.1289 841.226 74.4975C841.226 97.8631 831.117 109.425 818.534 109.425C805.95 109.425 795.841 97.8636 795.841 74.4975C795.841 51.1289 805.95 38.9293 818.534 38.9293ZM819.977 190.658C800.172 190.658 792.542 181.148 792.542 169.361C792.542 155.505 802.858 151.163 802.858 151.163H829.675C842.671 151.163 848.244 156.126 848.244 167.292C848.244 180.527 839.163 190.658 819.977 190.658V190.658Z" fill="#FEFEFE"/>
</g>
<defs>
<clipPath id="clip0_2367_79921">
<rect width="860" height="195" fill="white"/>
</clipPath>
</defs>
</svg>
