<svg width="1618" height="1080" viewBox="0 0 1618 1080" fill="none" xmlns="http://www.w3.org/2000/svg">
<g opacity="0.1" clip-path="url(#clip0_2367_79916)">
<path d="M382.36 1048.72H145.802V47.6805C145.783 26.9017 185.972 14.1988 185.972 4.46967V0H0.00292969V4.46967C0.00292969 14.1988 41.6672 26.9017 41.6672 47.6805V1032.34C41.6672 1048.72 0.00292969 1058.92 0.00292969 1075.53V1080H486.512V863.996H482.049C446.535 863.996 450.489 1048.72 382.36 1048.72ZM1618 0H1464.77V2.991C1464.77 20.4268 1557.58 65.7317 1548.08 101.307L1330.85 1020.41L1101.72 65.5561C1096.89 47.505 1144.86 14.1988 1144.86 2.991V0H982.703V4.46967L1052.62 287.507L878.569 1017.43L650.919 64.0611C646.526 47.6448 692.565 14.1988 692.565 2.991V0H531.884V4.46967L795.189 1080H902.133L1071.97 366.469L1245.99 1080H1353.11L1618 7.46067V0Z" fill="#FEFEFE"/>
</g>
<defs>
<clipPath id="clip0_2367_79916">
<rect width="1618" height="1080" fill="white"/>
</clipPath>
</defs>
</svg>
